<?xml version="1.0" encoding="utf-8"?>
<!-- Uploaded to: SVG Repo, www.svgrepo.com, Generator: SVG Repo Mixer Tools -->
<svg fill="#000000" version="1.1" id="Layer_1" xmlns="http://www.w3.org/2000/svg" xmlns:xlink="http://www.w3.org/1999/xlink" 
	 width="800px" height="800px" viewBox="0 0 256 252" xml:space="preserve">
<path d="M63.3,10.8C79,0.5,91.9-0.5,106.1,7.2c18.9,10.3,25.8,34,15.5,52.9S88,85,68.6,75.7C43.7,63.8,31.4,38.2,30.7,19.3l0,0
	C42.3,22.1,53.3,17.3,63.3,10.8z M254,159.3c0-12.6-4.8-20.4-9-27.3c-9.3-15.2-29.1-40.1-38.9-52.7L232,41.1h-71.7l25.8,38.1
	c-9.8,12.6-29.7,37.6-39,52.8c-3.8,6.1-7.9,13-8.8,23.4h-22.5c0,0-22.1-51.3-22.5-52c-6.4-12.6-16.7-20.1-30.4-20.1
	c-20.2,0-35.4,17.5-42.4,36.5C7.9,153.3,1.3,215.4,2.1,249.8h102.3v-45.3h-1.1c-13.8,0-26.2-8.2-31.6-20.8l-14-32.4
	c-1.1-2.5,0.1-5.4,2.6-6.5c2.5-1.1,5.4,0.1,6.5,2.6l14,32.4c3.9,9,12.8,14.9,22.6,14.9H225C241.3,192.4,254,177.4,254,159.3z
	 M198.9,164v7.1H191v-0.9h0v-6.5c-4.1-0.9-7.8-2.9-11.3-6.1l5.8-6.5c0,0,4.3,3.7,8.3,4.3c4.6,0.7,7.4-1.5,7.7-4.4
	c0.6-5.4-10-7.5-13.8-9.5c-4.6-2.4-9.1-5.8-9.1-12.8c0-7.2,5-12.4,12.5-13.1V109h0v-0.9h7.8v7.8c4.8,1.1,8.1,3.6,10.7,5.6l-5.3,6.9
	c-1.7-1.5-4.7-3.4-7.6-4.1c-3.7-0.9-7.7,0.1-8,4.2c-0.1,1.7,0.6,4.9,8.6,7.4c4.3,1.3,14.2,4.3,14.2,14.6
	C211.6,157.5,206.2,163.1,198.9,164z"/>
</svg>